<svg xmlns="http://www.w3.org/2000/svg"  viewBox="0 0 4335 4335" width="67px" height="67px" clip-rule="evenodd" image-rendering="optimizeQuality" shape-rendering="geometricPrecision" text-rendering="geometricPrecision"><path fill="#e0f4ff" d="M2262 1983l227 0 0 2 806 0c139,0 305,-55 305,-237 0,-123 -100,-222 -222,-222 -83,0 -155,45 -193,113 -8,14 -22,53 -28,59 -10,11 -24,18 -39,18 -29,0 -53,-24 -53,-53 0,-9 2,-18 6,-25l0 0c45,-126 166,-216 307,-216 180,0 326,146 326,326 0,169 -128,308 -293,324l0 2 -34 0 -1115 0c-25,0 -46,-21 -46,-46l0 0c0,-25 21,-46 46,-46zm1424 861c-30,0 -55,25 -55,55 0,20 11,37 27,47 13,8 34,25 49,34 51,34 113,53 179,53 180,0 326,-146 326,-326 0,-169 -128,-308 -293,-324l0 -2 -34 0 -1623 0c-25,0 -46,21 -46,46l0 0c0,25 21,46 46,46l802 0 595 0 124 0c181,5 325,28 325,235 0,123 -100,222 -222,222 -59,0 -114,-23 -153,-61 -10,-15 -27,-25 -46,-25zm213 -1223c-28,1 -50,24 -50,52 0,29 23,52 52,52 16,0 26,0 42,3 103,20 180,110 180,218 0,73 -35,137 -88,178 -72,55 -169,52 -252,52 -500,1 -1010,5 -1521,5 -25,0 -46,21 -46,46l0 0c0,25 21,46 46,46l1672 0 0 -2c164,-17 293,-156 293,-324 0,-180 -146,-326 -326,-326 -1,0 -1,0 -2,0l0 1z"/><path fill="#d2eaf7" d="M2715 2592l-1337 0 -9 0 0 0c-181,-5 -326,-152 -326,-334 0,-168 124,-307 285,-331l0 -4c0,-223 181,-403 403,-403 141,0 265,73 337,182 49,-34 109,-55 174,-55 168,0 305,136 305,305 0,5 0,10 0,15 49,-29 107,-45 168,-45 185,0 334,150 334,334 0,185 -150,334 -334,334z"/><path fill="#e0f4ff" d="M2488 2410l-884 0 -6 0 0 0c-119,-3 -215,-101 -215,-221 0,-111 82,-203 188,-219l0 -2c0,-147 119,-266 266,-266 93,0 175,48 223,121 33,-23 72,-36 115,-36 111,0 201,90 201,201 0,3 0,7 0,10 33,-19 70,-30 111,-30 122,0 221,99 221,221 0,122 -99,221 -221,221z"/><path fill="#ffbf00" d="M1014 1673c212,0 383,171 383,383 0,211 -171,383 -383,383 -211,0 -383,-171 -383,-383 0,-212 171,-383 383,-383z"/><path fill="#ff9500" d="M1008 1598c254,0 460,206 460,460 0,254 -206,460 -460,460 -254,0 -460,-206 -460,-460 0,-254 206,-460 460,-460zm378 872l-147 95 272 260 -125 -355zm-596 -923l-147 95 -125 -355 272 260zm437 -5l149 91 117 -358 -265 267zm-299 -35l174 0 -87 -366 -87 366zm0 1099l174 0 -87 366 -87 -366zm611 -363l-84 153 363 99 -280 -252zm-965 -526l-84 153 -280 -252 363 99zm989 246l2 174 365 -91 -367 -83zm-1099 12l2 174 -367 -83 365 -91zm988 -262l85 153 278 -254 -363 102zm-961 533l85 153 -363 102 278 -254zm162 233l149 91 -265 267 117 -358zm354 -794c109,0 207,47 276,122 -57,-36 -125,-56 -197,-56 -206,0 -373,167 -373,373 0,97 37,185 97,251 -106,-66 -176,-183 -176,-317 0,-206 167,-373 373,-373z"/></svg>