<svg xmlns="http://www.w3.org/2000/svg"  viewBox="0 0 48 48" width="48px" height="48px"><path fill="#8ce7f2" d="M40.1,22.5c-0.7,0-1.9,0-1.9,0s0-0.2,0-0.5c0-5.6-4.6-10.2-10.2-10.2s-10.2,4.6-10.2,10.2c0,0.3,0,0.5,0,0.5	s-1.2,0-1.9,0c-3.7,0-6.8,3-6.8,6.8s3,6.8,6.8,6.8c3.3,0,20.9,0,24.2,0c3.7,0,6.8-3,6.8-6.8S43.8,22.5,40.1,22.5z"/><path fill="none" stroke="#18193f" stroke-linecap="round" stroke-linejoin="round" stroke-miterlimit="10" stroke-width="3" d="M31.1,32.5c2.5,0,4.5,0,5.4,0c3.9,0,7-3.1,7-7s-3.1-7-7-7c-0.7,0-2,0-2,0s0-0.2,0-0.5	c0-5.8-4.7-10.5-10.5-10.5c-3.7,0-6.9,1.9-8.8,4.7"/><path fill="none" stroke="#18193f" stroke-linecap="round" stroke-linejoin="round" stroke-miterlimit="10" stroke-width="3" d="M13.5,18.5c0,0-1.3,0-2,0c-3.9,0-7,3.1-7,7s3.1,7,7,7c1.7,0,7.3,0,12.8,0"/><line x1="12.5" x2="10.5" y1="37.5" y2="42.5" fill="none" stroke="#18193f" stroke-linecap="round" stroke-miterlimit="10" stroke-width="3"/><line x1="6.5" x2="5.7" y1="37.5" y2="39.5" fill="none" stroke="#18193f" stroke-linecap="round" stroke-miterlimit="10" stroke-width="3"/><line x1="24.5" x2="22.5" y1="37.5" y2="42.5" fill="none" stroke="#18193f" stroke-linecap="round" stroke-miterlimit="10" stroke-width="3"/><line x1="18.5" x2="17.7" y1="37.5" y2="39.5" fill="none" stroke="#18193f" stroke-linecap="round" stroke-miterlimit="10" stroke-width="3"/><line x1="36.5" x2="34.5" y1="37.5" y2="42.5" fill="none" stroke="#18193f" stroke-linecap="round" stroke-miterlimit="10" stroke-width="3"/><line x1="30.5" x2="29.7" y1="37.5" y2="39.5" fill="none" stroke="#18193f" stroke-linecap="round" stroke-miterlimit="10" stroke-width="3"/><line x1="42.5" x2="41.7" y1="37.5" y2="39.5" fill="none" stroke="#18193f" stroke-linecap="round" stroke-miterlimit="10" stroke-width="3"/></svg>