<?xml version="1.0" ?><svg viewBox="0 0 64 64" xmlns="http://www.w3.org/2000/svg"><title/><g data-name="Half moon" id="Half_moon"><path d="M61.4328,33.3983a.9988.9988,0,0,0-1.16.1909,19.4974,19.4974,0,0,1-13.9512,5.8491H46.298A19.6,19.6,0,0,1,35.005,3.82a1,1,0,0,0-.4824-1.8129,1.25,1.25,0,0,0-.414-.0142A28.1459,28.1459,0,0,0,11.5265,46.9144a1,1,0,0,0,1.377.2212,7.9638,7.9638,0,0,1,4.5947-1.4541h.01a8.0047,8.0047,0,0,1,7.13,4.3359,7.5085,7.5085,0,0,1,.8292,2.4546,9.4253,9.4253,0,0,1,.1142,1.2036,1.6963,1.6963,0,0,0-.0342.3252,1,1,0,0,0,.7559.97,6.1879,6.1879,0,0,1,3.7344,2.6822,1,1,0,0,0,.7255.4565,28.6158,28.6158,0,0,0,3.3741.2031h.0351a28.3267,28.3267,0,0,0,27.8008-23.87A.9989.9989,0,0,0,61.4328,33.3983Z" style="fill:#c3aed6"/><path d="M31.7248,56.5794a8.1575,8.1575,0,0,0-4.1621-3.3144c-.02-.3423-.06-.7061-.12-1.1031a9.4528,9.4528,0,0,0-1.0439-3.0913,9.9837,9.9837,0,0,0-8.8906-5.3891h-.0118a9.9543,9.9543,0,0,0-5.7382,1.8139,10.1058,10.1058,0,0,0-4.19,6.6953c-.0595.3877-.0986.7491-.1172,1.0967a8.209,8.209,0,0,0-5.4345,7.7412,1,1,0,0,0,1,.9991h.001l29-.0328a1,1,0,0,0,.999-1.0014A8.1516,8.1516,0,0,0,31.7248,56.5794Z" style="fill:#9883ba"/><path d="M61.4327,33.3915a.9989.9989,0,0,0-1.16.191,19.4974,19.4974,0,0,1-13.9512,5.8491h-.0234A19.6,19.6,0,0,1,35.0049,3.8129,1,1,0,0,0,34.5225,2a1.2507,1.2507,0,0,0-.4141-.0141A28.1186,28.1186,0,0,0,10.9712,46.0969,10.1287,10.1287,0,0,0,7.5674,52.184c-.0595.3877-.0986.749-.1172,1.0967a8.209,8.209,0,0,0-5.4345,7.7412,1,1,0,0,0,1,.999h.001l29-.0327a1,1,0,0,0,.999-1.0014,8.2081,8.2081,0,0,0-.487-2.73c.54.0311,1.0772.0489,1.6081.0489h.0351a28.3267,28.3267,0,0,0,27.8008-23.87A.9991.9991,0,0,0,61.4327,33.3915ZM4.0948,60.02A6.21,6.21,0,0,1,8.712,54.9848a1,1,0,0,0,.7548-.97.731.731,0,0,0-.03-.25,8.45,8.45,0,0,1,.1064-1.273,8.0976,8.0976,0,0,1,3.36-5.3633,7.9645,7.9645,0,0,1,4.5947-1.4541h.01a8.0048,8.0048,0,0,1,7.13,4.336,7.5061,7.5061,0,0,1,.8291,2.4546,9.41,9.41,0,0,1,.1143,1.2036,1.6875,1.6875,0,0,0-.0342.3252,1,1,0,0,0,.7559.97A6.1889,6.1889,0,0,1,30.04,57.6513a6.0975,6.0975,0,0,1,.8945,2.3379ZM34.17,56.3056h-.0332a26.4947,26.4947,0,0,1-2.6875-.1392c-.0991-.1369-.2184-.2547-.3252-.3846-.1136-.1382-.2232-.2784-.3452-.4083-.1807-.1926-.3764-.367-.5743-.54-.1262-.1107-.2457-.2277-.3784-.33a8.1458,8.1458,0,0,0-.7176-.48c-.1215-.0749-.235-.1609-.3606-.23a8.264,8.264,0,0,0-1.1855-.5354c-.02-.3422-.0595-.706-.12-1.103a9.4552,9.4552,0,0,0-1.0439-3.0913,9.9838,9.9838,0,0,0-8.8906-5.3892h-.0118a10.1089,10.1089,0,0,0-1.165.0755c-.0672.0079-.1345.014-.2013.0232a9.9683,9.9683,0,0,0-1.0928.2134c-.0663.0168-.1316.036-.1975.0542a9.8966,9.8966,0,0,0-1.09.3631l-.0225.01a9.9616,9.9616,0,0,0-1.0366.5012c-.0319.0176-.0664.0295-.0982.0474A26.1549,26.1549,0,0,1,31.4776,4.12a21.6,21.6,0,0,0,14.82,37.312h.0254a21.4512,21.4512,0,0,0,13.06-4.4058A26.3519,26.3519,0,0,1,34.17,56.3056Z" style="fill:#776d8a"/></g></svg>