<svg xmlns="http://www.w3.org/2000/svg" viewBox="0 0 100 100" width="100" height="100">
  <!-- Background -->
  <rect width="100" height="100" fill="#192A56" />

  <!-- Cloud -->
  <g id="Layer_1-2" data-name="Layer 1">
    <path d="M59.3,28.1a13.8,13.8,0,0,0-27.6,0,11.6,11.6,0,0,0,3.7,8.5A14.2,14.2,0,0,0,21,48.4h6.2c-1.1,3.6-3.8,6.2-7,6.2a6.6,6.6,0,0,1-6.5-7.9,15.6,15.6,0,0,1,3.6-8.8,8.3,8.3,0,0,0,2.8-6.1A7.6,7.6,0,0,1,18,22.4,12.8,12.8,0,0,1,30.6,9.6a11.7,11.7,0,0,1,7.1,2.4,14.1,14.1,0,0,0,18.3,0A11.7,11.7,0,0,1,69.4,9.6a12.8,12.8,0,0,1,12.6,12.8,7.6,7.6,0,0,1-.5,3.1,8.3,8.3,0,0,0,2.8,6.1,15.6,15.6,0,0,1,3.6,8.8,6.6,6.6,0,0,1-6.5,7.9c-3.2,0-5.9-2.6-7-6.2h6.2a14.2,14.2,0,0,0-14.4-11.8A11.6,11.6,0,0,0,59.3,28.1Z" fill="#ecf0f1"/>
  </g>

  <!-- Lightning Bolt -->
  <g id="Layer_2" data-name="Layer 2">
    <polygon points="45.8 68.2 52.1 88.3 56.1 88.3 49.8 68.2 59.8 68.2 53.5 48 48.8 48 45.8 68.2" fill="#f1c40f"/>
  </g>
</svg>
